Coordinates
version=1
nRows=9
nColumns=36
inDegrees=yes

Units are S.I. units (second, meters, Newtons, ...)
If the header above contains a line with 'inDegrees', this indicates whether rotational values are in degrees (yes) or radians (no).

endheader
time	pelvis_tilt	pelvis_list	pelvis_rotation	pelvis_tx	pelvis_ty	pelvis_tz	hip_flexion_r	hip_adduction_r	hip_rotation_r	knee_angle_r	knee_angle_r_beta	ankle_angle_r	subtalar_angle_r	mtp_angle_r	hip_flexion_l	hip_adduction_l	hip_rotation_l	knee_angle_l	knee_angle_l_beta	ankle_angle_l	subtalar_angle_l	mtp_angle_l	lumbar_extension	lumbar_bending	lumbar_rotation	arm_flex_r	arm_add_r	arm_rot_r	elbow_flex_r	pro_sup_r	arm_flex_l	arm_add_l	arm_rot_l	elbow_flex_l	pro_sup_l
      7.45762710	     -1.85454438	     -0.10115777	      1.21498048	      0.40617101	      0.94033483	     -0.07270120	     -1.36675873	     -5.18249044	    -13.82626398	      0.63638163	      0.01110695	      0.59438493	     -6.38424463	     -7.49999987	     -1.68411936	     -4.22603878	     -8.09362451	      1.05274798	      0.01837392	     -1.10235120	     -9.02137546	     -7.49999987	      5.64764131	      0.69096222	     -3.24138627	    146.36851757	    -15.22937671	     56.77876330	     37.57991891	     74.75994160	    119.81689999	     -5.39000041	     40.14146108	     20.74481509	     79.05779549
      7.47457630	     -1.79786628	     -0.09601735	      1.44022948	      0.40621751	      0.94020151	     -0.07294141	     -1.47516798	     -5.19583704	    -13.77783823	      0.63920214	      0.01115618	      0.50911768	     -6.61350652	     -7.49999987	     -1.67413144	     -4.25470145	     -7.91571586	      1.08363033	      0.01891292	     -1.22180472	     -9.20228143	     -7.49999987	      6.02318606	      0.65754573	     -4.01165827	    141.88362874	    -14.80195117	     50.69576672	     38.86806166	     79.36549909	    117.33938965	     -5.90754790	     35.87414227	     22.69206150	     85.50338644
      7.49152540	     -1.70298244	     -0.11356860	      1.78773780	      0.40560618	      0.94042544	     -0.07295301	     -1.63327882	     -5.17771125	    -13.92344666	      0.62859203	      0.01097100	      0.45232296	     -6.67229247	     -7.49999987	     -1.64693619	     -4.30459089	     -7.71258817	      1.14001914	      0.01989709	     -1.31840303	     -9.39009609	     -7.49999987	      6.25091228	      0.61225909	     -4.75119098	    138.67009276	    -14.60424706	     48.32367126	     40.35925296	     78.87471001	    115.21116790	     -6.01232336	     33.49888375	     23.26646506	     87.28949273
      7.50847460	     -1.54542644	     -0.10813317	      2.01818055	      0.40177254	      0.94027828	     -0.06865698	     -1.78691992	     -5.12640962	    -13.91623158	      0.58446659	      0.01020087	      0.48677666	     -6.84791847	     -7.49999987	     -1.66769541	     -4.38279374	     -7.69248029	      1.15761265	      0.02020415	     -1.45847347	     -9.45906287	     -7.49999987	      6.25399317	      0.56236097	     -5.34511266	    135.99030409	    -13.92211249	     49.02285313	     41.40480128	     78.73409379	    113.57596190	     -6.61273289	     33.09060072	     22.85166530	     87.25872994
      7.52542370	     -1.48217919	     -0.12694365	      2.28228957	      0.40130241	      0.94052061	     -0.06853974	     -1.86170710	     -5.02711838	    -14.06101381	      0.58248678	      0.01016631	      0.39132776	     -6.99903050	     -7.49999987	     -1.55994034	     -4.48481881	     -7.37648371	      1.22056403	      0.02130286	     -1.68390732	     -9.46408715	     -7.49999987	      6.34178846	      0.42109007	     -5.78681546	    133.35708441	    -13.43949723	     48.51749106	     41.90915876	     77.13012608	    111.72523142	     -6.76297023	     28.91208158	     22.79980680	     89.59667220
      7.54237290	     -1.31810963	     -0.12196438	      2.51695693	      0.40138555	      0.94047844	     -0.06885446	     -2.01903929	     -4.93009905	    -14.12572058	      0.58594441	      0.01022666	      0.46325084	     -7.05437734	     -7.49999987	     -1.55808118	     -4.55350559	     -7.16569563	      1.31202117	      0.02289909	     -1.81051401	     -9.45408672	     -7.49999987	      6.25851737	      0.15189605	     -6.08382742	    131.03738103	    -13.50933636	     48.40230111	     42.32802529	     74.85925606	    111.23983297	     -6.99709529	     32.39793783	     21.52597672	     85.33041056
      7.55932200	     -1.19382015	     -0.09380938	      2.71850763	      0.40091799	      0.94078180	     -0.06880518	     -2.14300039	     -4.87875590	    -14.10479254	      0.59070888	      0.01030981	      0.43196859	     -7.25160802	     -7.49999987	     -1.53281362	     -4.59173495	     -6.98569858	      1.38605268	      0.02419118	     -1.88670585	     -9.26458980	     -7.49999987	      6.31191761	     -0.08750228	     -5.95984037	    128.33186059	    -13.71695649	     47.78763689	     43.22251319	     77.16705635	    109.70173384	     -6.81491535	     31.32098229	     21.31596076	     87.76934327
      7.57627120	     -0.97045041	     -0.07853110	      2.86119395	      0.40099698	      0.93785934	     -0.06906672	     -2.34727228	     -4.86707766	    -14.02932069	      0.60556120	      0.01056904	      0.41766271	     -7.55260925	     -7.49999987	     -1.64530767	     -4.62244432	     -6.80494167	      1.47370923	      0.02572108	     -1.90800162	     -9.29616452	     -7.49999987	      6.09184917	     -0.34827088	     -5.53280893	    125.86626436	    -14.27380156	     47.96983086	     44.19842774	     74.24320176	    108.98090901	     -6.18856524	     34.50738243	     20.48694679	     82.51578932
      7.59322030	     -0.86944650	     -0.05631358	      2.97545429	      0.40060954	      0.93838849	     -0.06893890	     -2.43376897	     -4.86411333	    -14.08144379	      0.63502042	      0.01108320	      0.50089380	     -7.64431302	     -7.49999987	     -1.64858144	     -4.65298022	     -6.66850424	      1.53934922	      0.02686671	     -1.87438733	     -9.13745524	     -7.49999987	      6.03177717	     -0.58658672	     -5.48177639	    121.97943254	    -14.26644262	     43.07750803	     44.41460178	     80.13550725	    108.14024492	     -5.52841218	     33.98193635	     19.31624247	     84.40780546
